<svg xmlns="http://www.w3.org/2000/svg" version="1.1" xmlns:xlink="http://www.w3.org/1999/xlink" xmlns:svgjs="http://svgjs.dev/svgjs" width="100" height="100"><svg width="100" height="100" viewBox="0 0 100 100" fill="none" xmlns="http://www.w3.org/2000/svg">
<rect width="100" height="100" rx="6" fill="white"></rect>
<path d="M58 31L42.1313 48C41.8882 48 38.2956 47.9946 35 47.9966L50.8656 31.0003H58V31Z" fill="#2563EA"></path>
<path d="M59.7481 32L56 35.9318L67.5064 48C67.7612 48 71.537 47.9945 75 47.9965L59.7481 32Z" fill="#2563EA"></path>
<path d="M73.8718 69.6586V74.9375C73.8718 76.4404 72.6609 77.6597 71.1639 77.6597H40.0016C32.4324 77.6597 26.2956 71.4903 26.2956 63.881V54.5955C26.2956 54.5559 26.1839 54.4674 26.2076 54.3277L26.5466 53.8253L50.1692 30.0854V14H18V66.1779C18 77.0805 26.872 86 37.7175 86H78.471C80.4207 86 82 84.4103 82 82.4506V69.6586H73.8724H73.8718Z" fill="#2563EA"></path>
<path d="M57.4251 46.3608C56.8185 45.9395 56.1784 45.6001 55.5407 45.3666C55.0112 45.172 54.4842 45.0513 53.979 45.0149C50.4607 44.7625 46.4844 47.7531 46 51.7441V69.9937C46.1157 70.0398 46.1887 69.8187 46.2363 69.8187H60.6054C60.6303 69.8187 61 70.1199 61 69.7317V52.2685C61 49.9587 59.3926 47.7277 57.4254 46.3611L57.4251 46.3608Z" fill="url(#paint0_linear_4335_1102)"></path>
<defs>
<linearGradient id="SvgjsLinearGradient1001" x1="46" y1="57.4998" x2="61" y2="57.4998" gradientUnits="userSpaceOnUse">
<stop stop-color="#2563EA"></stop>
<stop offset="1" stop-color="#50E6AF"></stop>
</linearGradient>
</defs>
</svg><style>@media (prefers-color-scheme: light) { :root { filter: none; } }
@media (prefers-color-scheme: dark) { :root { filter: none; } }
</style></svg>