<svg width="127" height="16" viewBox="0 0 127 16" fill="none" xmlns="http://www.w3.org/2000/svg">
<mask id="path-1-outside-1_4215_2336" maskUnits="userSpaceOnUse" x="0" y="0" width="127" height="16" fill="black">
<rect fill="white" width="127" height="16"/>
<path d="M0.782 15V0.435999H2.432V13.416H10.374V15H0.782ZM18.3359 15.176C17.2359 15.176 16.2313 14.9853 15.3219 14.604C14.4126 14.2227 13.6279 13.6873 12.9679 12.998C12.3226 12.3087 11.8239 11.5167 11.4719 10.622C11.1199 9.71267 10.9439 8.74467 10.9439 7.718C10.9439 6.67667 11.1199 5.70867 11.4719 4.814C11.8239 3.91933 12.3226 3.12733 12.9679 2.438C13.6279 1.74867 14.4126 1.21333 15.3219 0.831999C16.2313 0.450666 17.2359 0.26 18.3359 0.26C19.4359 0.26 20.4406 0.450666 21.3499 0.831999C22.2593 1.21333 23.0366 1.74867 23.6819 2.438C24.3419 3.12733 24.8479 3.91933 25.1999 4.814C25.5519 5.70867 25.7279 6.67667 25.7279 7.718C25.7279 8.74467 25.5519 9.71267 25.1999 10.622C24.8479 11.5167 24.3419 12.3087 23.6819 12.998C23.0366 13.6873 22.2593 14.2227 21.3499 14.604C20.4406 14.9853 19.4359 15.176 18.3359 15.176ZM18.3359 13.57C19.5239 13.57 20.5433 13.3133 21.3939 12.8C22.2593 12.272 22.9193 11.568 23.3739 10.688C23.8433 9.79333 24.0779 8.80333 24.0779 7.718C24.0779 6.618 23.8433 5.628 23.3739 4.748C22.9193 3.868 22.2593 3.17133 21.3939 2.658C20.5433 2.13 19.5239 1.866 18.3359 1.866C17.1626 1.866 16.1433 2.13 15.2779 2.658C14.4126 3.17133 13.7453 3.868 13.2759 4.748C12.8213 5.628 12.5939 6.618 12.5939 7.718C12.5939 8.80333 12.8213 9.79333 13.2759 10.688C13.7453 11.568 14.4126 12.272 15.2779 12.8C16.1433 13.3133 17.1626 13.57 18.3359 13.57ZM26.3726 15L32.5546 0.435999H34.6226L40.8046 15H38.9786L37.1966 10.776H29.9806L28.1986 15H26.3726ZM30.6186 9.258H36.5586L33.5886 2.152L30.6186 9.258ZM42.655 15V0.435999H44.569L53.567 12.69V0.435999H55.217V15H53.303L44.305 2.702V15H42.655ZM64.0038 15.176C62.5665 15.176 61.4005 14.9853 60.5058 14.604C59.6111 14.208 58.9365 13.6653 58.4818 12.976C58.0418 12.2867 57.7851 11.5093 57.7118 10.644H59.4278C59.4718 11.348 59.7065 11.92 60.1318 12.36C60.5571 12.7853 61.1145 13.1007 61.8038 13.306C62.5078 13.5113 63.2778 13.614 64.1138 13.614C65.3458 13.614 66.3211 13.4013 67.0398 12.976C67.7585 12.536 68.1178 11.8907 68.1178 11.04C68.1178 10.5267 67.9345 10.116 67.5678 9.808C67.2158 9.48533 66.7391 9.22133 66.1378 9.016C65.5511 8.81067 64.9058 8.62733 64.2018 8.466C63.4978 8.29 62.7865 8.10667 62.0678 7.916C61.3638 7.72533 60.7111 7.48333 60.1098 7.19C59.5231 6.89667 59.0465 6.52267 58.6798 6.068C58.3278 5.59867 58.1518 5.00467 58.1518 4.286C58.1518 3.098 58.6065 2.13 59.5158 1.382C60.4398 0.634 61.8111 0.26 63.6298 0.26C64.9205 0.26 65.9838 0.458 66.8198 0.854C67.6558 1.23533 68.2791 1.74133 68.6898 2.372C69.1151 3.00267 69.3498 3.68467 69.3938 4.418H67.6998C67.6118 3.68467 67.2451 3.06867 66.5998 2.57C65.9545 2.05667 64.9645 1.8 63.6298 1.8C62.8085 1.8 62.1411 1.88067 61.6278 2.042C61.1145 2.20333 60.7185 2.416 60.4398 2.68C60.1758 2.92933 59.9925 3.19333 59.8898 3.472C59.8018 3.75067 59.7578 4.01467 59.7578 4.264C59.7578 4.748 59.9338 5.144 60.2858 5.452C60.6525 5.74533 61.1291 5.99467 61.7158 6.2C62.3171 6.39067 62.9771 6.56667 63.6958 6.728C64.4145 6.88933 65.1258 7.07267 65.8298 7.278C66.5485 7.46867 67.2011 7.718 67.7878 8.026C68.3891 8.31933 68.8658 8.70067 69.2178 9.17C69.5845 9.63933 69.7678 10.2407 69.7678 10.974C69.7678 12.3233 69.2545 13.3647 68.2278 14.098C67.2011 14.8167 65.7931 15.176 64.0038 15.176ZM78.441 15.176C76.989 15.176 75.735 14.846 74.679 14.186C73.623 13.5113 72.809 12.6093 72.237 11.48C71.6796 10.3507 71.401 9.09667 71.401 7.718C71.401 6.33933 71.6796 5.08533 72.237 3.956C72.809 2.82667 73.623 1.932 74.679 1.272C75.735 0.597333 76.989 0.26 78.441 0.26C79.541 0.26 80.531 0.458 81.411 0.854C82.291 1.23533 83.039 1.76333 83.655 2.438C84.271 3.11267 84.733 3.89733 85.041 4.792H83.303C82.9363 3.89733 82.357 3.186 81.565 2.658C80.773 2.13 79.7756 1.866 78.573 1.866C77.3996 1.866 76.395 2.13 75.559 2.658C74.7376 3.17133 74.1143 3.868 73.689 4.748C73.2636 5.628 73.051 6.618 73.051 7.718C73.051 8.80333 73.2636 9.79333 73.689 10.688C74.1143 11.568 74.7376 12.272 75.559 12.8C76.395 13.3133 77.3996 13.57 78.573 13.57C79.7756 13.57 80.773 13.306 81.565 12.778C82.357 12.25 82.9363 11.5387 83.303 10.644H85.041C84.733 11.524 84.271 12.3087 83.655 12.998C83.039 13.6727 82.291 14.208 81.411 14.604C80.531 14.9853 79.541 15.176 78.441 15.176ZM85.7984 15L91.9804 0.435999H94.0484L100.23 15H98.4044L96.6224 10.776H89.4064L87.6244 15H85.7984ZM90.0444 9.258H95.9844L93.0144 2.152L90.0444 9.258ZM102.081 15V0.435999H108.637C110.191 0.435999 111.416 0.861332 112.311 1.712C113.205 2.548 113.653 3.68467 113.653 5.122C113.653 6.55933 113.205 7.70333 112.311 8.554C111.416 9.39 110.191 9.808 108.637 9.808H103.731V15H102.081ZM103.731 8.268H108.527C109.671 8.268 110.536 7.98933 111.123 7.432C111.709 6.87467 112.003 6.10467 112.003 5.122C112.003 4.154 111.709 3.39133 111.123 2.834C110.536 2.27667 109.671 1.998 108.527 1.998H103.731V8.268ZM115.895 15V0.435999H126.609V2.02H117.545V6.904H125.641V8.51H117.545V13.416H126.609V15H115.895Z"/>
</mask>
<path d="M0.782 15V0.435999H2.432V13.416H10.374V15H0.782ZM18.3359 15.176C17.2359 15.176 16.2313 14.9853 15.3219 14.604C14.4126 14.2227 13.6279 13.6873 12.9679 12.998C12.3226 12.3087 11.8239 11.5167 11.4719 10.622C11.1199 9.71267 10.9439 8.74467 10.9439 7.718C10.9439 6.67667 11.1199 5.70867 11.4719 4.814C11.8239 3.91933 12.3226 3.12733 12.9679 2.438C13.6279 1.74867 14.4126 1.21333 15.3219 0.831999C16.2313 0.450666 17.2359 0.26 18.3359 0.26C19.4359 0.26 20.4406 0.450666 21.3499 0.831999C22.2593 1.21333 23.0366 1.74867 23.6819 2.438C24.3419 3.12733 24.8479 3.91933 25.1999 4.814C25.5519 5.70867 25.7279 6.67667 25.7279 7.718C25.7279 8.74467 25.5519 9.71267 25.1999 10.622C24.8479 11.5167 24.3419 12.3087 23.6819 12.998C23.0366 13.6873 22.2593 14.2227 21.3499 14.604C20.4406 14.9853 19.4359 15.176 18.3359 15.176ZM18.3359 13.57C19.5239 13.57 20.5433 13.3133 21.3939 12.8C22.2593 12.272 22.9193 11.568 23.3739 10.688C23.8433 9.79333 24.0779 8.80333 24.0779 7.718C24.0779 6.618 23.8433 5.628 23.3739 4.748C22.9193 3.868 22.2593 3.17133 21.3939 2.658C20.5433 2.13 19.5239 1.866 18.3359 1.866C17.1626 1.866 16.1433 2.13 15.2779 2.658C14.4126 3.17133 13.7453 3.868 13.2759 4.748C12.8213 5.628 12.5939 6.618 12.5939 7.718C12.5939 8.80333 12.8213 9.79333 13.2759 10.688C13.7453 11.568 14.4126 12.272 15.2779 12.8C16.1433 13.3133 17.1626 13.57 18.3359 13.57ZM26.3726 15L32.5546 0.435999H34.6226L40.8046 15H38.9786L37.1966 10.776H29.9806L28.1986 15H26.3726ZM30.6186 9.258H36.5586L33.5886 2.152L30.6186 9.258ZM42.655 15V0.435999H44.569L53.567 12.69V0.435999H55.217V15H53.303L44.305 2.702V15H42.655ZM64.0038 15.176C62.5665 15.176 61.4005 14.9853 60.5058 14.604C59.6111 14.208 58.9365 13.6653 58.4818 12.976C58.0418 12.2867 57.7851 11.5093 57.7118 10.644H59.4278C59.4718 11.348 59.7065 11.92 60.1318 12.36C60.5571 12.7853 61.1145 13.1007 61.8038 13.306C62.5078 13.5113 63.2778 13.614 64.1138 13.614C65.3458 13.614 66.3211 13.4013 67.0398 12.976C67.7585 12.536 68.1178 11.8907 68.1178 11.04C68.1178 10.5267 67.9345 10.116 67.5678 9.808C67.2158 9.48533 66.7391 9.22133 66.1378 9.016C65.5511 8.81067 64.9058 8.62733 64.2018 8.466C63.4978 8.29 62.7865 8.10667 62.0678 7.916C61.3638 7.72533 60.7111 7.48333 60.1098 7.19C59.5231 6.89667 59.0465 6.52267 58.6798 6.068C58.3278 5.59867 58.1518 5.00467 58.1518 4.286C58.1518 3.098 58.6065 2.13 59.5158 1.382C60.4398 0.634 61.8111 0.26 63.6298 0.26C64.9205 0.26 65.9838 0.458 66.8198 0.854C67.6558 1.23533 68.2791 1.74133 68.6898 2.372C69.1151 3.00267 69.3498 3.68467 69.3938 4.418H67.6998C67.6118 3.68467 67.2451 3.06867 66.5998 2.57C65.9545 2.05667 64.9645 1.8 63.6298 1.8C62.8085 1.8 62.1411 1.88067 61.6278 2.042C61.1145 2.20333 60.7185 2.416 60.4398 2.68C60.1758 2.92933 59.9925 3.19333 59.8898 3.472C59.8018 3.75067 59.7578 4.01467 59.7578 4.264C59.7578 4.748 59.9338 5.144 60.2858 5.452C60.6525 5.74533 61.1291 5.99467 61.7158 6.2C62.3171 6.39067 62.9771 6.56667 63.6958 6.728C64.4145 6.88933 65.1258 7.07267 65.8298 7.278C66.5485 7.46867 67.2011 7.718 67.7878 8.026C68.3891 8.31933 68.8658 8.70067 69.2178 9.17C69.5845 9.63933 69.7678 10.2407 69.7678 10.974C69.7678 12.3233 69.2545 13.3647 68.2278 14.098C67.2011 14.8167 65.7931 15.176 64.0038 15.176ZM78.441 15.176C76.989 15.176 75.735 14.846 74.679 14.186C73.623 13.5113 72.809 12.6093 72.237 11.48C71.6796 10.3507 71.401 9.09667 71.401 7.718C71.401 6.33933 71.6796 5.08533 72.237 3.956C72.809 2.82667 73.623 1.932 74.679 1.272C75.735 0.597333 76.989 0.26 78.441 0.26C79.541 0.26 80.531 0.458 81.411 0.854C82.291 1.23533 83.039 1.76333 83.655 2.438C84.271 3.11267 84.733 3.89733 85.041 4.792H83.303C82.9363 3.89733 82.357 3.186 81.565 2.658C80.773 2.13 79.7756 1.866 78.573 1.866C77.3996 1.866 76.395 2.13 75.559 2.658C74.7376 3.17133 74.1143 3.868 73.689 4.748C73.2636 5.628 73.051 6.618 73.051 7.718C73.051 8.80333 73.2636 9.79333 73.689 10.688C74.1143 11.568 74.7376 12.272 75.559 12.8C76.395 13.3133 77.3996 13.57 78.573 13.57C79.7756 13.57 80.773 13.306 81.565 12.778C82.357 12.25 82.9363 11.5387 83.303 10.644H85.041C84.733 11.524 84.271 12.3087 83.655 12.998C83.039 13.6727 82.291 14.208 81.411 14.604C80.531 14.9853 79.541 15.176 78.441 15.176ZM85.7984 15L91.9804 0.435999H94.0484L100.23 15H98.4044L96.6224 10.776H89.4064L87.6244 15H85.7984ZM90.0444 9.258H95.9844L93.0144 2.152L90.0444 9.258ZM102.081 15V0.435999H108.637C110.191 0.435999 111.416 0.861332 112.311 1.712C113.205 2.548 113.653 3.68467 113.653 5.122C113.653 6.55933 113.205 7.70333 112.311 8.554C111.416 9.39 110.191 9.808 108.637 9.808H103.731V15H102.081ZM103.731 8.268H108.527C109.671 8.268 110.536 7.98933 111.123 7.432C111.709 6.87467 112.003 6.10467 112.003 5.122C112.003 4.154 111.709 3.39133 111.123 2.834C110.536 2.27667 109.671 1.998 108.527 1.998H103.731V8.268ZM115.895 15V0.435999H126.609V2.02H117.545V6.904H125.641V8.51H117.545V13.416H126.609V15H115.895Z" fill="black"/>
<path d="M0.782 15H0.582V15.2H0.782V15ZM0.782 0.435999V0.235999H0.582V0.435999H0.782ZM2.432 0.435999H2.632V0.235999H2.432V0.435999ZM2.432 13.416H2.232V13.616H2.432V13.416ZM10.374 13.416H10.574V13.216H10.374V13.416ZM10.374 15V15.2H10.574V15H10.374ZM0.982 15V0.435999H0.582V15H0.982ZM0.782 0.635999H2.432V0.235999H0.782V0.635999ZM2.232 0.435999V13.416H2.632V0.435999H2.232ZM2.432 13.616H10.374V13.216H2.432V13.616ZM10.174 13.416V15H10.574V13.416H10.174ZM10.374 14.8H0.782V15.2H10.374V14.8ZM15.3219 14.604L15.2446 14.7884L15.2446 14.7884L15.3219 14.604ZM12.9679 12.998L12.8219 13.1347L12.8235 13.1363L12.9679 12.998ZM11.4719 10.622L11.2854 10.6942L11.2858 10.6952L11.4719 10.622ZM11.4719 4.814L11.2858 4.74077L11.2858 4.74077L11.4719 4.814ZM12.9679 2.438L12.8235 2.29968L12.8219 2.30131L12.9679 2.438ZM15.3219 0.831999L15.2446 0.64756L15.2446 0.64756L15.3219 0.831999ZM21.3499 0.831999L21.4273 0.64756L21.4273 0.64756L21.3499 0.831999ZM23.6819 2.438L23.5359 2.57469L23.5375 2.57631L23.6819 2.438ZM25.1999 4.814L25.3861 4.74077L25.1999 4.814ZM25.1999 10.622L25.3861 10.6952L25.3865 10.6942L25.1999 10.622ZM23.6819 12.998L23.5375 12.8597L23.5359 12.8613L23.6819 12.998ZM21.3499 14.604L21.4273 14.7884L21.4273 14.7884L21.3499 14.604ZM21.3939 12.8L21.4973 12.9712L21.4981 12.9707L21.3939 12.8ZM23.3739 10.688L23.1968 10.5951L23.1963 10.5962L23.3739 10.688ZM23.3739 4.748L23.1962 4.83981L23.1975 4.84212L23.3739 4.748ZM21.3939 2.658L21.2884 2.82796L21.2919 2.83001L21.3939 2.658ZM15.2779 2.658L15.38 2.83002L15.3821 2.82873L15.2779 2.658ZM13.2759 4.748L13.0995 4.65387L13.0983 4.6562L13.2759 4.748ZM13.2759 10.688L13.0976 10.7786L13.0995 10.7821L13.2759 10.688ZM15.2779 12.8L15.1738 12.9707L15.1759 12.972L15.2779 12.8ZM18.3359 14.976C17.2594 14.976 16.2814 14.7895 15.3993 14.4196L15.2446 14.7884C16.1811 15.1812 17.2124 15.376 18.3359 15.376V14.976ZM15.3993 14.4196C14.5144 14.0485 13.7528 13.5285 13.1124 12.8597L12.8235 13.1363C13.5031 13.8461 14.3108 14.3969 15.2446 14.7884L15.3993 14.4196ZM13.1139 12.8613C12.4862 12.1908 12.001 11.4204 11.6581 10.5488L11.2858 10.6952C11.6469 11.613 12.159 12.4266 12.8219 13.1347L13.1139 12.8613ZM11.6585 10.5498C11.3158 9.6647 11.1439 8.7213 11.1439 7.718H10.7439C10.7439 8.76804 10.924 9.76064 11.2854 10.6942L11.6585 10.5498ZM11.1439 7.718C11.1439 6.69963 11.316 5.7567 11.6581 4.88722L11.2858 4.74077C10.9239 5.66064 10.7439 6.6537 10.7439 7.718H11.1439ZM11.6581 4.88722C12.001 4.01562 12.4862 3.24525 13.1139 2.57468L12.8219 2.30131C12.159 3.00942 11.6469 3.82305 11.2858 4.74077L11.6581 4.88722ZM13.1124 2.57631C13.7528 1.90746 14.5144 1.38752 15.3993 1.01644L15.2446 0.64756C14.3108 1.03914 13.5031 1.58987 12.8235 2.29968L13.1124 2.57631ZM15.3993 1.01644C16.2814 0.6465 17.2594 0.46 18.3359 0.46V0.0599996C17.2124 0.0599996 16.1811 0.254832 15.2446 0.64756L15.3993 1.01644ZM18.3359 0.46C19.4124 0.46 20.3904 0.6465 21.2726 1.01644L21.4273 0.64756C20.4908 0.254832 19.4594 0.0599996 18.3359 0.0599996V0.46ZM21.2726 1.01644C22.1571 1.38736 22.9107 1.90684 23.5359 2.57468L23.8279 2.30131C23.1625 1.59049 22.3614 1.0393 21.4273 0.64756L21.2726 1.01644ZM23.5375 2.57631C24.1794 3.24672 24.6713 4.01657 25.0138 4.88722L25.3861 4.74077C25.0246 3.82209 24.5045 3.00794 23.8264 2.29968L23.5375 2.57631ZM25.0138 4.88722C25.3559 5.7567 25.5279 6.69963 25.5279 7.718H25.9279C25.9279 6.6537 25.748 5.66064 25.3861 4.74077L25.0138 4.88722ZM25.5279 7.718C25.5279 8.7213 25.356 9.6647 25.0134 10.5498L25.3865 10.6942C25.7478 9.76064 25.9279 8.76804 25.9279 7.718H25.5279ZM25.0138 10.5488C24.6713 11.4194 24.1794 12.1893 23.5375 12.8597L23.8264 13.1363C24.5045 12.4281 25.0246 11.6139 25.3861 10.6952L25.0138 10.5488ZM23.5359 12.8613C22.9107 13.5292 22.1571 14.0486 21.2726 14.4196L21.4273 14.7884C22.3614 14.3967 23.1625 13.8455 23.8279 13.1347L23.5359 12.8613ZM21.2726 14.4196C20.3904 14.7895 19.4124 14.976 18.3359 14.976V15.376C19.4594 15.376 20.4908 15.1812 21.4273 14.7884L21.2726 14.4196ZM18.3359 13.77C19.5532 13.77 20.6098 13.5068 21.4973 12.9712L21.2906 12.6288C20.4767 13.1199 19.4947 13.37 18.3359 13.37V13.77ZM21.4981 12.9707C22.3939 12.4241 23.0797 11.6931 23.5516 10.7798L23.1963 10.5962C22.7588 11.4429 22.1246 12.1199 21.2898 12.6293L21.4981 12.9707ZM23.551 10.7809C24.0365 9.85547 24.2779 8.83323 24.2779 7.718H23.8779C23.8779 8.77343 23.65 9.73119 23.1968 10.5951L23.551 10.7809ZM24.2779 7.718C24.2779 6.58862 24.0367 5.56574 23.5504 4.65388L23.1975 4.84212C23.6498 5.69026 23.8779 6.64738 23.8779 7.718H24.2779ZM23.5516 4.6562C23.0795 3.74235 22.393 3.01812 21.496 2.48599L21.2919 2.83001C22.1255 3.32454 22.7591 3.99365 23.1963 4.8398L23.5516 4.6562ZM21.4994 2.48807C20.6116 1.93701 19.5542 1.666 18.3359 1.666V2.066C19.4937 2.066 20.475 2.32299 21.2885 2.82793L21.4994 2.48807ZM18.3359 1.666C17.1317 1.666 16.0751 1.93728 15.1738 2.48727L15.3821 2.82873C16.2114 2.32272 17.1935 2.066 18.3359 2.066V1.666ZM15.1759 2.48599C14.2794 3.01782 13.5862 3.7413 13.0995 4.65388L13.4524 4.84212C13.9044 3.9947 14.5458 3.32485 15.38 2.83001L15.1759 2.48599ZM13.0983 4.6562C12.6274 5.5676 12.3939 6.58964 12.3939 7.718H12.7939C12.7939 6.64636 13.0152 5.6884 13.4536 4.8398L13.0983 4.6562ZM12.3939 7.718C12.3939 8.8322 12.6276 9.85362 13.0976 10.7786L13.4542 10.5974C13.015 9.73304 12.7939 8.77446 12.7939 7.718H12.3939ZM13.0995 10.7821C13.5859 11.6942 14.2784 12.4244 15.1738 12.9707L15.3821 12.6293C14.5468 12.1196 13.9046 11.4418 13.4524 10.5939L13.0995 10.7821ZM15.1759 12.972C16.0769 13.5065 17.1327 13.77 18.3359 13.77V13.37C17.1925 13.37 16.2096 13.1201 15.38 12.628L15.1759 12.972ZM26.3726 15L26.1885 14.9219L26.0705 15.2H26.3726V15ZM32.5546 0.435999V0.235999H32.4223L32.3705 0.357853L32.5546 0.435999ZM34.6226 0.435999L34.8067 0.357853L34.755 0.235999H34.6226V0.435999ZM40.8046 15V15.2H41.1068L40.9887 14.9219L40.8046 15ZM38.9786 15L38.7944 15.0777L38.8459 15.2H38.9786V15ZM37.1966 10.776L37.3809 10.6983L37.3293 10.576H37.1966V10.776ZM29.9806 10.776V10.576H29.8479L29.7964 10.6983L29.9806 10.776ZM28.1986 15V15.2H28.3313L28.3829 15.0777L28.1986 15ZM30.6186 9.258L30.4341 9.18087L30.3183 9.458H30.6186V9.258ZM36.5586 9.258V9.458H36.859L36.7432 9.18087L36.5586 9.258ZM33.5886 2.152L33.7732 2.07487L33.5886 1.63337L33.4041 2.07487L33.5886 2.152ZM26.5567 15.0781L32.7387 0.514144L32.3705 0.357853L26.1885 14.9219L26.5567 15.0781ZM32.5546 0.635999H34.6226V0.235999H32.5546V0.635999ZM34.4385 0.514144L40.6205 15.0781L40.9887 14.9219L34.8067 0.357853L34.4385 0.514144ZM40.8046 14.8H38.9786V15.2H40.8046V14.8ZM39.1629 14.9223L37.3809 10.6983L37.0124 10.8537L38.7944 15.0777L39.1629 14.9223ZM37.1966 10.576H29.9806V10.976H37.1966V10.576ZM29.7964 10.6983L28.0144 14.9223L28.3829 15.0777L30.1649 10.8537L29.7964 10.6983ZM28.1986 14.8H26.3726V15.2H28.1986V14.8ZM30.6186 9.458H36.5586V9.058H30.6186V9.458ZM36.7432 9.18087L33.7732 2.07487L33.4041 2.22912L36.3741 9.33513L36.7432 9.18087ZM33.4041 2.07487L30.4341 9.18087L30.8032 9.33513L33.7732 2.22912L33.4041 2.07487ZM42.655 15H42.455V15.2H42.655V15ZM42.655 0.435999V0.235999H42.455V0.435999H42.655ZM44.569 0.435999L44.7303 0.317626L44.6703 0.235999H44.569V0.435999ZM53.567 12.69L53.4058 12.8084L53.767 13.3003V12.69H53.567ZM53.567 0.435999V0.235999H53.367V0.435999H53.567ZM55.217 0.435999H55.417V0.235999H55.217V0.435999ZM55.217 15V15.2H55.417V15H55.217ZM53.303 15L53.1416 15.1181L53.2016 15.2H53.303V15ZM44.305 2.702L44.4665 2.5839L44.105 2.08995V2.702H44.305ZM44.305 15V15.2H44.505V15H44.305ZM42.855 15V0.435999H42.455V15H42.855ZM42.655 0.635999H44.569V0.235999H42.655V0.635999ZM44.4078 0.554372L53.4058 12.8084L53.7283 12.5716L44.7303 0.317626L44.4078 0.554372ZM53.767 12.69V0.435999H53.367V12.69H53.767ZM53.567 0.635999H55.217V0.235999H53.567V0.635999ZM55.017 0.435999V15H55.417V0.435999H55.017ZM55.217 14.8H53.303V15.2H55.217V14.8ZM53.4645 14.8819L44.4665 2.5839L44.1436 2.8201L53.1416 15.1181L53.4645 14.8819ZM44.105 2.702V15H44.505V2.702H44.105ZM44.305 14.8H42.655V15.2H44.305V14.8ZM60.5058 14.604L60.4249 14.7869L60.4274 14.788L60.5058 14.604ZM58.4818 12.976L58.3132 13.0836L58.3149 13.0861L58.4818 12.976ZM57.7118 10.644V10.444H57.4941L57.5125 10.6609L57.7118 10.644ZM59.4278 10.644L59.6274 10.6315L59.6157 10.444H59.4278V10.644ZM60.1318 12.36L59.988 12.499L59.9904 12.5014L60.1318 12.36ZM61.8038 13.306L61.7467 13.4977L61.7478 13.498L61.8038 13.306ZM67.0398 12.976L67.1417 13.1481L67.1442 13.1466L67.0398 12.976ZM67.5678 9.808L67.4325 9.95557L67.4392 9.96114L67.5678 9.808ZM66.1378 9.016L66.0717 9.20478L66.0732 9.20527L66.1378 9.016ZM64.2018 8.466L64.1533 8.66007L64.1571 8.66095L64.2018 8.466ZM62.0678 7.916L62.0155 8.10905L62.0165 8.10931L62.0678 7.916ZM60.1098 7.19L60.0204 7.36889L60.0221 7.36975L60.1098 7.19ZM58.6798 6.068L58.5197 6.18807L58.5241 6.19355L58.6798 6.068ZM59.5158 1.382L59.39 1.22655L59.3888 1.22754L59.5158 1.382ZM66.8198 0.854L66.7342 1.03477L66.7368 1.03596L66.8198 0.854ZM68.6898 2.372L68.5222 2.48115L68.524 2.48383L68.6898 2.372ZM69.3938 4.418V4.618H69.6062L69.5935 4.40602L69.3938 4.418ZM67.6998 4.418L67.5012 4.44183L67.5224 4.618H67.6998V4.418ZM66.5998 2.57L66.4753 2.72654L66.4775 2.72826L66.5998 2.57ZM61.6278 2.042L61.5678 1.8512L61.5678 1.8512L61.6278 2.042ZM60.4398 2.68L60.5771 2.8254L60.5774 2.82519L60.4398 2.68ZM59.8898 3.472L59.7019 3.40278L59.6991 3.41177L59.8898 3.472ZM60.2858 5.452L60.154 5.60266L60.1609 5.60817L60.2858 5.452ZM61.7158 6.2L61.6497 6.38885L61.6554 6.39065L61.7158 6.2ZM65.8298 7.278L65.7738 7.47006L65.7785 7.47131L65.8298 7.278ZM67.7878 8.026L67.6948 8.20316L67.7001 8.20575L67.7878 8.026ZM69.2178 9.17L69.0578 9.29002L69.0602 9.29313L69.2178 9.17ZM68.2278 14.098L68.3425 14.2619L68.3441 14.2607L68.2278 14.098ZM64.0038 14.976C62.5817 14.976 61.4452 14.787 60.5842 14.42L60.4274 14.788C61.3558 15.1837 62.5513 15.376 64.0038 15.376V14.976ZM60.5868 14.4211C59.7206 14.0377 59.0787 13.5177 58.6488 12.8659L58.3149 13.0861C58.7943 13.813 59.5017 14.3783 60.4249 14.7869L60.5868 14.4211ZM58.6504 12.8684C58.2289 12.2081 57.9819 11.4622 57.9111 10.6271L57.5125 10.6609C57.5884 11.5564 57.8547 12.3653 58.3132 13.0836L58.6504 12.8684ZM57.7118 10.844H59.4278V10.444H57.7118V10.844ZM59.2282 10.6565C59.2747 11.4003 59.5246 12.0197 59.988 12.499L60.2756 12.221C59.8883 11.8203 59.6689 11.2957 59.6274 10.6315L59.2282 10.6565ZM59.9904 12.5014C60.4434 12.9544 61.0318 13.2847 61.7467 13.4977L61.8609 13.1143C61.1972 12.9166 60.6709 12.6162 60.2732 12.2186L59.9904 12.5014ZM61.7478 13.498C62.4723 13.7093 63.2615 13.814 64.1138 13.814V13.414C63.2942 13.414 62.5433 13.3133 61.8598 13.114L61.7478 13.498ZM64.1138 13.814C65.3657 13.814 66.3809 13.5984 67.1417 13.1481L66.9379 12.8039C66.2614 13.2043 65.3259 13.414 64.1138 13.414V13.814ZM67.1442 13.1466C67.923 12.6698 68.3178 11.9595 68.3178 11.04H67.9178C67.9178 11.8219 67.594 12.4022 66.9354 12.8054L67.1442 13.1466ZM68.3178 11.04C68.3178 10.4724 68.1119 10.0039 67.6965 9.65486L67.4392 9.96114C67.757 10.2281 67.9178 10.5809 67.9178 11.04H68.3178ZM67.703 9.66057C67.3251 9.31415 66.8217 9.03819 66.2024 8.82673L66.0732 9.20527C66.6566 9.40448 67.1066 9.65651 67.4327 9.95543L67.703 9.66057ZM66.2039 8.82723C65.6092 8.61909 64.9566 8.43379 64.2465 8.27105L64.1571 8.66095C64.855 8.82088 65.4931 9.00225 66.0717 9.20477L66.2039 8.82723ZM64.2503 8.27197C63.5473 8.09621 62.8369 7.91311 62.1191 7.72269L62.0165 8.10931C62.7361 8.30022 63.4484 8.48379 64.1533 8.66003L64.2503 8.27197ZM62.1201 7.72295C61.4272 7.5353 60.7865 7.29757 60.1975 7.01025L60.0221 7.36975C60.6358 7.6691 61.3004 7.91537 62.0155 8.10904L62.1201 7.72295ZM60.1993 7.01111C59.6351 6.72902 59.1821 6.37219 58.8355 5.94245L58.5241 6.19355C58.9109 6.67314 59.4112 7.06431 60.0204 7.36889L60.1993 7.01111ZM58.8398 5.948C58.5192 5.52048 58.3518 4.97134 58.3518 4.286H57.9518C57.9518 5.03799 58.1365 5.67685 58.5198 6.188L58.8398 5.948ZM58.3518 4.286C58.3518 3.15718 58.7802 2.24607 59.6429 1.53646L59.3888 1.22754C58.4328 2.01393 57.9518 3.03882 57.9518 4.286H58.3518ZM59.6417 1.53745C60.5155 0.830057 61.8339 0.46 63.6298 0.46V0.0599996C61.7884 0.0599996 60.3641 0.437942 59.39 1.22655L59.6417 1.53745ZM63.6298 0.46C64.9018 0.46 65.9334 0.655405 66.7342 1.03475L66.9054 0.673252C66.0343 0.260595 64.9391 0.0599996 63.6298 0.0599996V0.46ZM66.7368 1.03596C67.5459 1.40504 68.1364 1.88867 68.5222 2.48113L68.8574 2.26287C68.4219 1.59399 67.7657 1.06563 66.9028 0.672036L66.7368 1.03596ZM68.524 2.48383C68.9301 3.08594 69.1524 3.73366 69.1942 4.42998L69.5935 4.40602C69.5472 3.63568 69.3002 2.9194 68.8556 2.26017L68.524 2.48383ZM69.3938 4.218H67.6998V4.618H69.3938V4.218ZM67.8984 4.39417C67.8033 3.60181 67.405 2.93943 66.7221 2.41174L66.4775 2.72826C67.0853 3.19791 67.4203 3.76752 67.5012 4.44183L67.8984 4.39417ZM66.7243 2.41348C66.0276 1.85924 64.9837 1.6 63.6298 1.6V2C64.9452 2 65.8814 2.25409 66.4753 2.72652L66.7243 2.41348ZM63.6298 1.6C62.7977 1.6 62.108 1.68145 61.5678 1.8512L61.6878 2.2328C62.1743 2.07988 62.8193 2 63.6298 2V1.6ZM61.5678 1.8512C61.0364 2.01821 60.61 2.24325 60.3023 2.53481L60.5774 2.82519C60.8269 2.58875 61.1925 2.38845 61.6878 2.2328L61.5678 1.8512ZM60.3025 2.5346C60.021 2.80048 59.8176 3.08949 59.7021 3.40286L60.0775 3.54114C60.1674 3.29718 60.3307 3.05818 60.5771 2.8254L60.3025 2.5346ZM59.6991 3.41177C59.606 3.70666 59.5578 3.99107 59.5578 4.264H59.9578C59.9578 4.03826 59.9977 3.79468 60.0805 3.53223L59.6991 3.41177ZM59.5578 4.264C59.5578 4.80338 59.757 5.25505 60.1541 5.60252L60.4175 5.30148C60.1106 5.03295 59.9578 4.69262 59.9578 4.264H59.5578ZM60.1609 5.60817C60.5499 5.91936 61.0482 6.17825 61.6497 6.38877L61.7819 6.01123C61.21 5.81109 60.7551 5.57131 60.4108 5.29583L60.1609 5.60817ZM61.6554 6.39065C62.263 6.58331 62.9286 6.76075 63.652 6.92314L63.7396 6.53286C63.0257 6.37258 62.3713 6.19802 61.7763 6.00935L61.6554 6.39065ZM63.652 6.92314C64.3666 7.08356 65.0739 7.26585 65.7738 7.47L65.8858 7.086C65.1778 6.87949 64.4624 6.69511 63.7396 6.53286L63.652 6.92314ZM65.7785 7.47131C66.4845 7.6586 67.1229 7.90282 67.6948 8.20308L67.8808 7.84892C67.2794 7.53318 66.6125 7.27873 65.8811 7.08469L65.7785 7.47131ZM67.7001 8.20575C68.277 8.48715 68.7274 8.8494 69.0578 9.29L69.3778 9.05C69.0043 8.55194 68.5013 8.15152 67.8755 7.84625L67.7001 8.20575ZM69.0602 9.29313C69.3935 9.71978 69.5678 10.2747 69.5678 10.974H69.9678C69.9678 10.2066 69.7754 9.55888 69.3754 9.04687L69.0602 9.29313ZM69.5678 10.974C69.5678 12.264 69.0815 13.2424 68.1116 13.9353L68.3441 14.2607C69.4274 13.4869 69.9678 12.3827 69.9678 10.974H69.5678ZM68.1131 13.9342C67.1317 14.6212 65.769 14.976 64.0038 14.976V15.376C65.8173 15.376 67.2706 15.0122 68.3425 14.2618L68.1131 13.9342ZM74.679 14.186L74.5713 14.3545L74.573 14.3556L74.679 14.186ZM72.237 11.48L72.0576 11.5685L72.0585 11.5704L72.237 11.48ZM72.237 3.956L72.0585 3.86563L72.0576 3.86749L72.237 3.956ZM74.679 1.272L74.785 1.44161L74.7866 1.44054L74.679 1.272ZM81.411 0.854L81.3289 1.0364L81.3314 1.03751L81.411 0.854ZM85.041 4.792V4.992H85.3213L85.2301 4.7269L85.041 4.792ZM83.303 4.792L83.1179 4.86784L83.1688 4.992H83.303V4.792ZM81.565 2.658L81.6759 2.49159L81.6759 2.49159L81.565 2.658ZM75.559 2.658L75.665 2.8276L75.6658 2.8271L75.559 2.658ZM73.689 4.748L73.5089 4.66097L73.689 4.748ZM73.689 10.688L73.5083 10.7739L73.5089 10.775L73.689 10.688ZM75.559 12.8L75.4508 12.9683L75.4543 12.9704L75.559 12.8ZM81.565 12.778L81.6759 12.9444L81.6759 12.9444L81.565 12.778ZM83.303 10.644V10.444H83.1688L83.1179 10.5682L83.303 10.644ZM85.041 10.644L85.2297 10.7101L85.3229 10.444H85.041V10.644ZM83.655 12.998L83.8027 13.1329L83.8041 13.1313L83.655 12.998ZM81.411 14.604L81.4905 14.7875L81.493 14.7864L81.411 14.604ZM78.441 14.976C77.0201 14.976 75.8042 14.6534 74.785 14.0164L74.573 14.3556C75.6657 15.0386 76.9578 15.376 78.441 15.376V14.976ZM74.7866 14.0175C73.7611 13.3623 72.9714 12.4874 72.4154 11.3896L72.0585 11.5704C72.6465 12.7313 73.4848 13.6604 74.5713 14.3545L74.7866 14.0175ZM72.4163 11.3915C71.8738 10.2922 71.601 9.06892 71.601 7.718H71.201C71.201 9.12441 71.4855 10.4091 72.0576 11.5685L72.4163 11.3915ZM71.601 7.718C71.601 6.36708 71.8738 5.14378 72.4163 4.04451L72.0576 3.86749C71.4855 5.02688 71.201 6.31159 71.201 7.718H71.601ZM72.4154 4.04637C72.9712 2.94898 73.7604 2.08195 74.785 1.4416L74.573 1.1024C73.4855 1.78205 72.6467 2.70435 72.0585 3.86563L72.4154 4.04637ZM74.7866 1.44054C75.8056 0.789511 77.0209 0.46 78.441 0.46V0.0599996C76.957 0.0599996 75.6643 0.405155 74.5713 1.10346L74.7866 1.44054ZM78.441 0.46C79.5166 0.46 80.4781 0.653515 81.3289 1.03638L81.493 0.671616C80.5839 0.262485 79.5653 0.0599996 78.441 0.0599996V0.46ZM81.3314 1.03751C82.1869 1.40819 82.9113 1.92007 83.5073 2.57285L83.8027 2.30315C83.1667 1.60659 82.3951 1.06248 81.4905 0.670489L81.3314 1.03751ZM83.5073 2.57285C84.1042 3.22662 84.5524 3.98733 84.8519 4.8571L85.2301 4.7269C84.9135 3.80734 84.4378 2.99871 83.8027 2.30315L83.5073 2.57285ZM85.041 4.592H83.303V4.992H85.041V4.592ZM83.488 4.71615C83.1065 3.78521 82.5016 3.04208 81.6759 2.49159L81.454 2.82441C82.2123 3.32992 82.7661 4.00946 83.1179 4.86784L83.488 4.71615ZM81.6759 2.49159C80.8434 1.93656 79.8047 1.666 78.573 1.666V2.066C79.7465 2.066 80.7026 2.32344 81.454 2.82441L81.6759 2.49159ZM78.573 1.666C77.369 1.666 76.3257 1.93721 75.4522 2.4889L75.6658 2.8271C76.4643 2.32279 77.4303 2.066 78.573 2.066V1.666ZM75.453 2.4884C74.5993 3.02191 73.9505 3.74734 73.5089 4.66097L73.869 4.83503C74.2781 3.98866 74.8759 3.32075 75.665 2.8276L75.453 2.4884ZM73.5089 4.66097C73.0689 5.57133 72.851 6.59166 72.851 7.718H73.251C73.251 6.64434 73.4584 5.68466 73.869 4.83503L73.5089 4.66097ZM72.851 7.718C72.851 8.83016 73.0691 9.84989 73.5083 10.7739L73.8696 10.6021C73.4582 9.73677 73.251 8.7765 73.251 7.718H72.851ZM73.5089 10.775C73.9503 11.6882 74.5985 12.4203 75.4508 12.9682L75.6671 12.6318C74.8768 12.1237 74.2784 11.4478 73.869 10.601L73.5089 10.775ZM75.4543 12.9704C76.3275 13.5066 77.37 13.77 78.573 13.77V13.37C77.4293 13.37 76.4625 13.1201 75.6636 12.6296L75.4543 12.9704ZM78.573 13.77C79.8047 13.77 80.8434 13.4994 81.6759 12.9444L81.454 12.6116C80.7026 13.1126 79.7465 13.37 78.573 13.37V13.77ZM81.6759 12.9444C82.5016 12.3939 83.1065 11.6508 83.488 10.7198L83.1179 10.5682C82.7661 11.4265 82.2123 12.1061 81.454 12.6116L81.6759 12.9444ZM83.303 10.844H85.041V10.444H83.303V10.844ZM84.8522 10.5779C84.5528 11.4334 84.1042 12.1952 83.5058 12.8647L83.8041 13.1313C84.4377 12.4222 84.9131 11.6146 85.2297 10.7101L84.8522 10.5779ZM83.5073 12.8631C82.9107 13.5165 82.1854 14.0362 81.3289 14.4216L81.493 14.7864C82.3965 14.3798 83.1672 13.8288 83.8027 13.1329L83.5073 12.8631ZM81.3314 14.4205C80.48 14.7895 79.5176 14.976 78.441 14.976V15.376C79.5643 15.376 80.582 15.1812 81.4905 14.7875L81.3314 14.4205ZM85.7984 15L85.6143 14.9219L85.4963 15.2H85.7984V15ZM91.9804 0.435999V0.235999H91.848L91.7963 0.357853L91.9804 0.435999ZM94.0484 0.435999L94.2325 0.357853L94.1808 0.235999H94.0484V0.435999ZM100.23 15V15.2H100.533L100.415 14.9219L100.23 15ZM98.4044 15L98.2201 15.0777L98.2717 15.2H98.4044V15ZM96.6224 10.776L96.8067 10.6983L96.7551 10.576H96.6224V10.776ZM89.4064 10.776V10.576H89.2737L89.2221 10.6983L89.4064 10.776ZM87.6244 15V15.2H87.7571L87.8087 15.0777L87.6244 15ZM90.0444 9.258L89.8599 9.18087L89.7441 9.458H90.0444V9.258ZM95.9844 9.258V9.458H96.2848L96.169 9.18087L95.9844 9.258ZM93.0144 2.152L93.199 2.07487L93.0144 1.63337L92.8299 2.07487L93.0144 2.152ZM85.9825 15.0781L92.1645 0.514144L91.7963 0.357853L85.6143 14.9219L85.9825 15.0781ZM91.9804 0.635999H94.0484V0.235999H91.9804V0.635999ZM93.8643 0.514144L100.046 15.0781L100.415 14.9219L94.2325 0.357853L93.8643 0.514144ZM100.23 14.8H98.4044V15.2H100.23V14.8ZM98.5887 14.9223L96.8067 10.6983L96.4381 10.8537L98.2201 15.0777L98.5887 14.9223ZM96.6224 10.576H89.4064V10.976H96.6224V10.576ZM89.2221 10.6983L87.4401 14.9223L87.8087 15.0777L89.5907 10.8537L89.2221 10.6983ZM87.6244 14.8H85.7984V15.2H87.6244V14.8ZM90.0444 9.458H95.9844V9.058H90.0444V9.458ZM96.169 9.18087L93.199 2.07487L92.8299 2.22912L95.7999 9.33513L96.169 9.18087ZM92.8299 2.07487L89.8599 9.18087L90.229 9.33513L93.199 2.22912L92.8299 2.07487ZM102.081 15H101.881V15.2H102.081V15ZM102.081 0.435999V0.235999H101.881V0.435999H102.081ZM112.311 1.712L112.173 1.85695L112.174 1.85813L112.311 1.712ZM112.311 8.554L112.447 8.70014L112.449 8.69894L112.311 8.554ZM103.731 9.808V9.608H103.531V9.808H103.731ZM103.731 15V15.2H103.931V15H103.731ZM103.731 8.268H103.531V8.468H103.731V8.268ZM111.123 7.432L111.261 7.577L111.261 7.577L111.123 7.432ZM111.123 2.834L110.985 2.979L111.123 2.834ZM103.731 1.998V1.798H103.531V1.998H103.731ZM102.281 15V0.435999H101.881V15H102.281ZM102.081 0.635999H108.637V0.235999H102.081V0.635999ZM108.637 0.635999C110.154 0.635999 111.325 1.05016 112.173 1.85694L112.449 1.56706C111.508 0.672499 110.229 0.235999 108.637 0.235999V0.635999ZM112.174 1.85813C113.021 2.6497 113.453 3.72957 113.453 5.122H113.853C113.853 3.63976 113.39 2.4463 112.447 1.56587L112.174 1.85813ZM113.453 5.122C113.453 6.51434 113.021 7.60241 112.173 8.40906L112.449 8.69894C113.39 7.80426 113.853 6.60432 113.853 5.122H113.453ZM112.174 8.40787C111.326 9.20063 110.155 9.608 108.637 9.608V10.008C110.228 10.008 111.506 9.57937 112.447 8.70013L112.174 8.40787ZM108.637 9.608H103.731V10.008H108.637V9.608ZM103.531 9.808V15H103.931V9.808H103.531ZM103.731 14.8H102.081V15.2H103.731V14.8ZM103.731 8.468H108.527V8.068H103.731V8.468ZM108.527 8.468C109.701 8.468 110.624 8.18199 111.261 7.577L110.985 7.287C110.449 7.79667 109.641 8.068 108.527 8.068V8.468ZM111.261 7.577C111.895 6.97401 112.203 6.14685 112.203 5.122H111.803C111.803 6.06248 111.524 6.77532 110.985 7.287L111.261 7.577ZM112.203 5.122C112.203 4.1108 111.895 3.29141 111.261 2.689L110.985 2.979C111.524 3.49125 111.803 4.1972 111.803 5.122H112.203ZM111.261 2.689C110.624 2.08401 109.701 1.798 108.527 1.798V2.198C109.641 2.198 110.449 2.46933 110.985 2.979L111.261 2.689ZM108.527 1.798H103.731V2.198H108.527V1.798ZM103.531 1.998V8.268H103.931V1.998H103.531ZM115.895 15H115.695V15.2H115.895V15ZM115.895 0.435999V0.235999H115.695V0.435999H115.895ZM126.609 0.435999H126.809V0.235999H126.609V0.435999ZM126.609 2.02V2.22H126.809V2.02H126.609ZM117.545 2.02V1.82H117.345V2.02H117.545ZM117.545 6.904H117.345V7.104H117.545V6.904ZM125.641 6.904H125.841V6.704H125.641V6.904ZM125.641 8.51V8.71H125.841V8.51H125.641ZM117.545 8.51V8.31H117.345V8.51H117.545ZM117.545 13.416H117.345V13.616H117.545V13.416ZM126.609 13.416H126.809V13.216H126.609V13.416ZM126.609 15V15.2H126.809V15H126.609ZM116.095 15V0.435999H115.695V15H116.095ZM115.895 0.635999H126.609V0.235999H115.895V0.635999ZM126.409 0.435999V2.02H126.809V0.435999H126.409ZM126.609 1.82H117.545V2.22H126.609V1.82ZM117.345 2.02V6.904H117.745V2.02H117.345ZM117.545 7.104H125.641V6.704H117.545V7.104ZM125.441 6.904V8.51H125.841V6.904H125.441ZM125.641 8.31H117.545V8.71H125.641V8.31ZM117.345 8.51V13.416H117.745V8.51H117.345ZM117.545 13.616H126.609V13.216H117.545V13.616ZM126.409 13.416V15H126.809V13.416H126.409ZM126.609 14.8H115.895V15.2H126.609V14.8Z" fill="black" mask="url(#path-1-outside-1_4215_2336)"/>
</svg>
