<svg width="1339" height="281" viewBox="0 0 1339 281" fill="none" xmlns="http://www.w3.org/2000/svg">
<path d="M155 71.0049L93.5933 133C92.6504 133 78.748 132.981 66 132.985L127.392 71H155V71.0049Z" fill="#2563EA"/>
<path d="M158.414 78L145 91.5168L186.181 133C187.093 133 200.61 132.981 213 132.986L158.414 78Z" fill="#2563EA"/>
<path d="M209.915 211.904V230.672C209.915 236.014 205.585 240.35 200.228 240.35H88.7255C61.6406 240.35 39.6852 218.412 39.6852 191.359V158.341C39.6852 158.2 39.2833 157.888 39.3684 157.387L40.5834 155.602L125.105 71.1943V14H10V199.52C10 238.286 41.7465 270 80.5514 270H226.372C233.35 270 239 264.347 239 257.38V211.899H209.92L209.915 211.904Z" fill="#2563EA"/>
<path d="M154.174 130.787C151.83 129.305 149.353 128.11 146.89 127.29C144.841 126.604 142.807 126.182 140.853 126.052C127.251 125.165 111.877 135.69 110 149.74V213.977C110.448 214.141 110.729 213.364 110.915 213.364H166.475C166.571 213.364 168 214.424 168 213.057V151.587C168 143.456 161.783 135.603 154.179 130.792L154.174 130.787Z" fill="url(#paint0_linear_4332_1101)"/>
<path d="M382.89 164.652C383.452 172.184 383.018 179.821 383.018 187.34C383.018 209.825 384.312 223.885 372.472 241.992C361.775 258.352 342.85 269.999 320.242 269.999H309.073C286.762 269.999 267.71 258.588 256.848 241.992C244.814 224.584 246.311 209.655 246.311 192.97V166.909C246.311 136.782 273.142 106.457 309.082 106.457H320.252C351.625 106.457 380.335 130.43 382.895 164.652H382.89ZM352.348 164.411C351.153 156.566 347.597 150.153 341.481 144.802C335.204 139.314 324.927 136.603 314.66 136.612C304.393 136.603 294.12 139.314 287.839 144.802C281.723 150.153 278.167 156.566 276.972 164.411C276.556 166.918 276.424 208.725 276.962 211.965C278.167 219.989 281.714 226.421 287.825 231.711C293.917 236.996 300.865 239.565 309.073 239.565H320.242C328.451 239.565 335.398 236.996 341.495 231.711C347.602 226.421 351.148 219.989 352.357 211.965C352.901 208.725 352.764 166.918 352.348 164.411Z" fill="#2563EA"/>
<path d="M396.822 205.618C396.808 171.666 392.274 147.093 417.215 123.956C441.377 101.546 479.15 101.395 503.402 124.773C515.403 136.349 521.986 150.574 522.954 167.061L522.964 167.349C523.096 187.714 523.115 245.158 523.115 265.4H492.535V209.08H427.421V265.395H396.841C396.841 245.809 396.841 230.98 396.827 205.618H396.822ZM492.535 178.495C492.535 169.427 493.862 157.573 482.022 146.46C469.724 134.913 451.064 134.771 438.68 145.686C426.014 156.846 427.412 169.267 427.412 178.495H492.53H492.535Z" fill="#2563EA"/>
<path d="M538.511 265.017C538.511 245.705 538.525 185.758 538.657 166.891V166.645C539.517 150.295 545.992 136.211 557.898 124.787C581.899 101.749 619.063 101.848 642.913 124.069C656.066 136.329 663.023 152.118 663.023 169.724V265.021H632.868V183.246C633.042 168.855 634.691 156.888 621.783 145.52C609.546 134.757 591.042 134.983 578.905 146.299C572.737 152.052 569.431 158.867 568.803 167.132V265.021H538.506L538.511 265.017Z" fill="#2563EA"/>
<path d="M747.751 265.375H678.963V235.116H746.513C772.989 235.116 772.234 195.454 746.513 195.454C738.891 195.454 725.01 195.458 717.411 195.501C693.868 195.501 677.357 178.059 674.991 158.927C671.685 132.829 692.12 111.293 716.788 111.293H785.708V141.595C784.98 141.595 716.679 141.595 715.961 141.651V141.675C701.798 142.643 701.377 164.122 715.961 165.114V165.138C717.166 165.223 741.715 165.19 746.523 165.185C760.266 165.185 772.167 170.149 781.896 179.925C813.36 211.582 790.714 264.893 747.76 265.365L747.751 265.375Z" fill="#2563EA"/>
<path d="M868.05 265.385C853.991 265.385 840.158 260.663 829.12 251.94C818.343 243.429 810.536 231.405 807.164 218.091C804.132 206.109 805.284 193.32 805.284 181.069C805.284 168.818 805.18 153.946 816.685 137.624C824.572 126.431 836.11 118.015 849.178 113.934C855.28 112.031 861.665 111.072 868.05 111.072H921.239V141.501H868.05C851.355 141.501 838.283 153.696 835.95 169.026C835.369 172.492 835.543 204.967 835.935 207.352C838.325 223.23 851.606 234.952 868.05 234.952H921.239V265.385H868.05Z" fill="#2563EA"/>
<path d="M932.254 205.618C932.24 171.666 927.706 147.093 952.647 123.956C976.809 101.546 1014.58 101.395 1038.83 124.773C1050.83 136.349 1057.42 150.574 1058.39 167.061L1058.4 167.349C1058.53 187.714 1058.55 245.158 1058.55 265.4H1027.97V209.08H962.853V265.395H932.273C932.273 245.809 932.273 230.98 932.258 205.618H932.254ZM1027.97 178.495C1027.97 169.427 1029.29 157.573 1017.45 146.46C1005.16 134.913 986.495 134.771 974.112 145.686C961.445 156.846 962.843 169.267 962.843 178.495H1027.96H1027.97Z" fill="#2563EA"/>
<path d="M1201.52 161.747C1201.52 189.484 1179.16 212.054 1151.66 212.054H1106.42V265.167H1075.84L1075.99 111.293H1151.22C1179.1 111.293 1201.52 133.783 1201.52 161.747ZM1150.63 141.727H1106.42V181.616H1151.22C1177.33 181.616 1177.87 141.727 1150.63 141.727Z" fill="#2563EA"/>
<path d="M1328.23 265.386H1277.16C1262.83 265.386 1248.27 262.25 1236.11 254.411C1225.95 247.855 1218.03 238.258 1213.44 227.075C1208.23 214.389 1208.68 201.279 1208.68 187.904C1208.68 173.868 1207.22 160.36 1215.9 144.119C1221.8 133.062 1231.17 124.198 1242.38 118.639C1253.14 113.302 1265.2 111.068 1277.16 111.068H1328.23V141.497H1277.16C1252.12 141.497 1239.32 155.893 1238.97 173.136H1317.37V203.314H1238.98C1239.36 220.623 1251.92 234.953 1277.15 234.953H1328.22V265.386H1328.23Z" fill="#2563EA"/>
<defs>
<linearGradient id="paint0_linear_4332_1101" x1="110" y1="169.998" x2="167.995" y2="169.998" gradientUnits="userSpaceOnUse">
<stop stop-color="#2563EA"/>
<stop offset="1" stop-color="#50E6AF"/>
</linearGradient>
</defs>
</svg>
