<svg width="159" height="19" viewBox="0 0 159 19" fill="none" xmlns="http://www.w3.org/2000/svg">
<path d="M4.08367 2.71429H5.32114V16.2857H4.08367V2.71429Z" fill="#2563EB"/>
<path d="M15.4046 12.676L15.3944 13.9097L4.25752 13.818L4.26774 12.5843L15.4046 12.676Z" fill="#2563EB"/>
<path d="M34.4335 16.2857V1.91086H36.067V14.7223H43.9294V16.2857H34.4335Z" fill="black"/>
<path d="M51.8115 16.4594C50.7226 16.4594 49.728 16.2712 48.8277 15.8949C47.9275 15.5185 47.1507 14.9901 46.4973 14.3097C45.8585 13.6293 45.3648 12.8476 45.0163 11.9646C44.6678 11.067 44.4936 10.1116 44.4936 9.09828C44.4936 8.07048 44.6678 7.11505 45.0163 6.232C45.3648 5.34895 45.8585 4.56724 46.4973 3.88686C47.1507 3.20648 47.9275 2.67809 48.8277 2.30171C49.728 1.92533 50.7226 1.73714 51.8115 1.73714C52.9005 1.73714 53.8951 1.92533 54.7953 2.30171C55.6956 2.67809 56.4651 3.20648 57.104 3.88686C57.7574 4.56724 58.2583 5.34895 58.6068 6.232C58.9552 7.11505 59.1295 8.07048 59.1295 9.09828C59.1295 10.1116 58.9552 11.067 58.6068 11.9646C58.2583 12.8476 57.7574 13.6293 57.104 14.3097C56.4651 14.9901 55.6956 15.5185 54.7953 15.8949C53.8951 16.2712 52.9005 16.4594 51.8115 16.4594ZM51.8115 14.8743C52.9876 14.8743 53.9968 14.621 54.8389 14.1143C55.6956 13.5931 56.349 12.8983 56.7991 12.0297C57.2637 11.1467 57.496 10.1695 57.496 9.09828C57.496 8.01257 57.2637 7.03543 56.7991 6.16686C56.349 5.29829 55.6956 4.61067 54.8389 4.104C53.9968 3.58286 52.9876 3.32229 51.8115 3.32229C50.65 3.32229 49.6408 3.58286 48.7842 4.104C47.9275 4.61067 47.2669 5.29829 46.8022 6.16686C46.3521 7.03543 46.1271 8.01257 46.1271 9.09828C46.1271 10.1695 46.3521 11.1467 46.8022 12.0297C47.2669 12.8983 47.9275 13.5931 48.7842 14.1143C49.6408 14.621 50.65 14.8743 51.8115 14.8743Z" fill="black"/>
<path d="M59.7677 16.2857L65.8878 1.91086H67.9351L74.0551 16.2857H72.2474L70.4833 12.1166H63.3396L61.5754 16.2857H59.7677ZM63.9712 10.6183H69.8517L66.9114 3.60457L63.9712 10.6183Z" fill="black"/>
<path d="M75.887 16.2857V1.91086H77.7818L86.6896 14.0057V1.91086H88.3231V16.2857H86.4283L77.5204 4.14743V16.2857H75.887Z" fill="black"/>
<path d="M97.0218 16.4594C95.5989 16.4594 94.4446 16.2712 93.5589 15.8949C92.6732 15.504 92.0053 14.9684 91.5552 14.288C91.1196 13.6076 90.8655 12.8404 90.7929 11.9863H92.4917C92.5352 12.6811 92.7676 13.2457 93.1886 13.68C93.6097 14.0998 94.1614 14.411 94.8439 14.6137C95.5408 14.8164 96.3031 14.9177 97.1307 14.9177C98.3504 14.9177 99.3159 14.7078 100.027 14.288C100.739 13.8537 101.095 13.2168 101.095 12.3771C101.095 11.8705 100.913 11.4651 100.55 11.1611C100.202 10.8427 99.7298 10.5821 99.1344 10.3794C98.5537 10.1768 97.9148 9.99581 97.2179 9.83657C96.5209 9.66286 95.8167 9.4819 95.1052 9.29371C94.4083 9.10552 93.7622 8.86667 93.1668 8.57714C92.5861 8.28762 92.1142 7.91848 91.7512 7.46971C91.4027 7.00648 91.2285 6.42019 91.2285 5.71086C91.2285 4.53829 91.6786 3.58286 92.5788 2.84457C93.4935 2.10629 94.8511 1.73714 96.6516 1.73714C97.9293 1.73714 98.982 1.93257 99.8096 2.32343C100.637 2.69981 101.254 3.19924 101.661 3.82171C102.082 4.44419 102.314 5.11733 102.358 5.84114H100.681C100.594 5.11733 100.231 4.50933 99.5918 4.01714C98.953 3.51048 97.9729 3.25714 96.6516 3.25714C95.8385 3.25714 95.1778 3.33676 94.6696 3.496C94.1614 3.65524 93.7694 3.86514 93.4935 4.12571C93.2322 4.37181 93.0507 4.63238 92.9491 4.90743C92.8619 5.18248 92.8184 5.44305 92.8184 5.68914C92.8184 6.16686 92.9926 6.55771 93.3411 6.86171C93.7041 7.15124 94.176 7.39733 94.7568 7.6C95.3521 7.78819 96.0054 7.9619 96.7169 8.12114C97.4284 8.28038 98.1326 8.46133 98.8295 8.664C99.541 8.85219 100.187 9.09828 100.768 9.40229C101.363 9.69181 101.835 10.0682 102.184 10.5314C102.547 10.9947 102.728 11.5882 102.728 12.312C102.728 13.6438 102.22 14.6716 101.204 15.3954C100.187 16.1048 98.7932 16.4594 97.0218 16.4594Z" fill="black"/>
<path d="M111.314 16.4594C109.877 16.4594 108.635 16.1337 107.59 15.4823C106.545 14.8164 105.739 13.9261 105.172 12.8114C104.621 11.6968 104.345 10.459 104.345 9.09828C104.345 7.73752 104.621 6.49981 105.172 5.38514C105.739 4.27047 106.545 3.38743 107.59 2.736C108.635 2.07009 109.877 1.73714 111.314 1.73714C112.403 1.73714 113.383 1.93257 114.255 2.32343C115.126 2.69981 115.866 3.22095 116.476 3.88686C117.086 4.55276 117.543 5.32724 117.848 6.21029H116.128C115.765 5.32724 115.191 4.62514 114.407 4.104C113.623 3.58286 112.636 3.32229 111.445 3.32229C110.283 3.32229 109.289 3.58286 108.461 4.104C107.648 4.61067 107.031 5.29829 106.61 6.16686C106.189 7.03543 105.978 8.01257 105.978 9.09828C105.978 10.1695 106.189 11.1467 106.61 12.0297C107.031 12.8983 107.648 13.5931 108.461 14.1143C109.289 14.621 110.283 14.8743 111.445 14.8743C112.636 14.8743 113.623 14.6137 114.407 14.0926C115.191 13.5714 115.765 12.8693 116.128 11.9863H117.848C117.543 12.8549 117.086 13.6293 116.476 14.3097C115.866 14.9756 115.126 15.504 114.255 15.8949C113.383 16.2712 112.403 16.4594 111.314 16.4594Z" fill="black"/>
<path d="M118.598 16.2857L124.718 1.91086H126.765L132.885 16.2857H131.078L129.314 12.1166H122.17L120.406 16.2857H118.598ZM122.802 10.6183H128.682L125.742 3.60457L122.802 10.6183Z" fill="black"/>
<path d="M134.717 16.2857V1.91086H141.208C142.747 1.91086 143.959 2.33067 144.845 3.17028C145.731 3.99543 146.173 5.11733 146.173 6.536C146.173 7.95467 145.731 9.08381 144.845 9.92343C143.959 10.7486 142.747 11.1611 141.208 11.1611H136.351V16.2857H134.717ZM136.351 9.64114H141.099C142.231 9.64114 143.088 9.36609 143.669 8.816C144.25 8.2659 144.54 7.5059 144.54 6.536C144.54 5.58057 144.25 4.82781 143.669 4.27771C143.088 3.72762 142.231 3.45257 141.099 3.45257H136.351V9.64114Z" fill="black"/>
<path d="M148.393 16.2857V1.91086H159V3.47428H150.027V8.29486H158.042V9.88H150.027V14.7223H159V16.2857H148.393Z" fill="black"/>
</svg>
